{"title":"Newlyweds.2011.DVDSCR.XviD.AC3-26K","uid":6950406,"size":1214874667,"categoryP":"video","categoryS":"movies","magnet":"?xt=urn:btih:0b8316755335617840f4c7b509200d3aee8fae83&amp;dn=Newlyweds.2011.DVDSCR.XviD.AC3-26K&amp;tr=udp%3A%2F%2Ftracker.openbittorrent.com%3A80&amp;tr=udp%3A%2F%2Fopen.demonii.com%3A1337&amp;tr=udp%3A%2F%2Ftracker.coppersurfer.tk%3A6969&amp;tr=udp%3A%2F%2Fexodus.desync.com%3A6969","seeders":0,"leechers":1,"uploader":"maximersk","files":4,"time":1326381175,"description":"Newlyweds.2011.DVDSCR.XviD.AC3-26K\n\n\n\n\n\n\n\n\n\nPlot:\nNewlyweds Buzzy and Katie find their blissful life disrupted by the arrival of his half-sister and news of her sister's marriage troubles.\n\nVideo\nID : 0\nFormat : MPEG-4 Visual\nFormat profile : Advanced Simple@L5\nFormat settings, BVOP : 2\nFormat settings, QPel : No\nFormat settings, GMC : No warppoints\nFormat settings, Matrix : Default (H.263)\nCodec ID : XVID\nCodec ID/Hint : XviD\nDuration : 1h 35mn\nBit rate : 1 500 Kbps\nWidth : 584 pixels\nHeight : 328 pixels\nDisplay aspect ratio : 16:9\nFrame rate : 23.976 fps\nColor space : YUV\nChroma subsampling : 4:2:0\nBit depth : 8 bits\nScan type : Progressive\nCompression mode : Lossy\nBits/(Pixel*Frame) : 0.327\nStream size : 1.00 GiB (92%)\nWriting library : XviD 63\n\nAudio\nID : 1\nFormat : AC-3\nFormat/Info : Audio Coding 3\nMode extension : CM (complete main)\nCodec ID : 2000\nDuration : 1h 35mn\nBit rate mode : Constant\nBit rate : 128 Kbps\nChannel(s) : 2 channels\nChannel positions : Front: L R\nSampling rate : 48.0 KHz\nBit depth : 16 bits\nCompression mode : Lossy\nStream size : 87.4 MiB (8%)\nAlignment : Aligned on interleaves\nInterleave, duration : 32 ms (0.77 video frame)\n\n\n","torrent":{"xt":"urn:btih:0b8316755335617840f4c7b509200d3aee8fae83","amp;dn":"Newlyweds.2011.DVDSCR.XviD.AC3-26K","amp;tr":["udp%3A%2F%2Ftracker.openbittorrent.com%3A80","udp%3A%2F%2Fopen.demonii.com%3A1337","udp%3A%2F%2Ftracker.coppersurfer.tk%3A6969","udp%3A%2F%2Fexodus.desync.com%3A6969"],"infoHash":"0b8316755335617840f4c7b509200d3aee8fae83","infoHashBuffer":{"type":"Buffer","data":[11,131,22,117,83,53,97,120,64,244,199,181,9,32,13,58,238,143,174,131]},"announce":[],"urlList":[]}}